<svg width="12" height="11" viewBox="0 0 12 11" fill="none" xmlns="http://www.w3.org/2000/svg">
<g id="maki:arrow">
<path id="Vector" d="M6.63442 1.68151C6.78445 1.54403 6.98789 1.4668 7.20002 1.4668C7.41216 1.4668 7.6156 1.54403 7.76562 1.68151L11.3656 4.98151C11.5156 5.11903 11.5999 5.30552 11.5999 5.49997C11.5999 5.69443 11.5156 5.88092 11.3656 6.01844L7.76562 9.31844C7.61474 9.45202 7.41266 9.52594 7.2029 9.52427C6.99315 9.5226 6.7925 9.44547 6.64417 9.30951C6.49584 9.17354 6.41171 8.98961 6.40989 8.79733C6.40806 8.60506 6.4887 8.41982 6.63442 8.28151L8.80002 6.23331H1.20002C0.987851 6.23331 0.784368 6.15604 0.634339 6.01852C0.48431 5.88099 0.400024 5.69447 0.400024 5.49997C0.400024 5.30548 0.48431 5.11896 0.634339 4.98143C0.784368 4.8439 0.987851 4.76664 1.20002 4.76664H8.80002L6.63442 2.71844C6.48445 2.58092 6.4002 2.39443 6.4002 2.19997C6.4002 2.00552 6.48445 1.81903 6.63442 1.68151Z" fill="black"/>
</g>
</svg>
